<?xml version="1.0" standalone="no"?><!DOCTYPE svg PUBLIC "-//W3C//DTD SVG 1.1//EN" "http://www.w3.org/Graphics/SVG/1.1/DTD/svg11.dtd"><svg t="1562523380255" class="icon" viewBox="0 0 1024 1024" version="1.1" xmlns="http://www.w3.org/2000/svg" p-id="927" xmlns:xlink="http://www.w3.org/1999/xlink" width="200" height="200"><defs><style type="text/css"></style></defs><path d="M731.477333 877.738667H146.346667A146.218667 146.218667 0 0 0 292.522667 1024h438.869333a146.261333 146.261333 0 0 0 146.261333-146.261333V276.992a5.248 5.248 0 0 0-5.290666-5.333333h-135.68a5.333333 5.333333 0 0 0-5.248 5.376v600.746666z m0-877.738667a146.304 146.304 0 0 1 146.218667 146.346667H292.608v600.661333a5.376 5.376 0 0 1-5.333333 5.333333H151.637333a5.333333 5.333333 0 0 1-5.333333-5.333333V146.261333A146.304 146.304 0 0 1 292.522667 0h438.912" fill="#007fff" p-id="928"></path></svg>