<?xml version="1.0" standalone="no"?><!DOCTYPE svg PUBLIC "-//W3C//DTD SVG 1.1//EN" "http://www.w3.org/Graphics/SVG/1.1/DTD/svg11.dtd"><svg t="1562523487994" class="icon" viewBox="0 0 1024 1024" version="1.1" xmlns="http://www.w3.org/2000/svg" p-id="2794" xmlns:xlink="http://www.w3.org/1999/xlink" width="200" height="200"><defs><style type="text/css"></style></defs><path d="M159.744 101.888h217.6c51.2 0 76.8 25.6 76.8 76.8v217.6c0 51.2-25.6 76.8-76.8 76.8H159.744c-51.2 0-76.8-25.6-76.8-76.8V178.688c0-51.2 25.6-76.8 76.8-76.8z" fill="#D1D1D1" p-id="2795"></path><path d="M750.592 71.68c136.704 0 204.8 68.096 204.8 204.8s-68.096 204.8-204.8 204.8-204.8-68.096-204.8-204.8c0-136.192 68.608-204.8 204.8-204.8z" fill="#007fff" p-id="2796" data-spm-anchor-id="a313x.7781069.0.i9" class="selected"></path><path d="M652.8 581.12H870.4c51.2 0 76.8 25.6 76.8 76.8V875.52c0 51.2-25.6 76.8-76.8 76.8h-217.6c-51.2 0-76.8-25.6-76.8-76.8v-217.6c0-51.2 25.6-76.8 76.8-76.8z" fill="#D1D1D1" p-id="2797"></path><path d="M311.296 607.232L471.04 874.496c12.8 20.992 5.632 48.64-15.36 61.44-7.168 4.096-14.848 6.144-23.04 6.144H113.152c-24.576 0-45.056-19.968-45.056-44.544 0-8.192 2.048-15.872 6.144-23.04l159.744-267.264c12.8-20.992 39.936-28.16 61.44-15.36 6.656 3.584 12.288 8.704 15.872 15.36z" fill="#007fff" p-id="2798" data-spm-anchor-id="a313x.7781069.0.i8" class="selected"></path></svg>